<svg width="800" height="987" xmlns="http://www.w3.org/2000/svg" version="1.1"><g id="swarm-Action" transform="translate(25,0)"><text x="-25" y="23" style="font-size: 10px; font-family: Arial, Helvetica;">Action</text><g id="circles" class="bees"><circle id="circle" r="7.155607373567912" cx="164.00973538601716" cy="13.180732595552398" fill="#444"></circle><circle id="circle" r="9.096413414152256" cx="225.07421297530757" cy="10.44622908046071" fill="#444"></circle><circle id="circle" r="2.2792373127005043" cx="10.467799674192946" cy="7.637042332417857" fill="#444"></circle><circle id="circle" r="3.37625422554592" cx="45.28190984139974" cy="14.302343626461063" fill="#444"></circle><circle id="circle" r="11.849574841056835" cx="311.6192439166992" cy="10.443069894135474" fill="#444"></circle><circle id="circle" r="2.402452110479576" cx="14.656312185123127" cy="11.474199500745561" fill="#444"></circle><circle id="circle" r="7.602650640892512" cx="178.58672996199905" cy="19.165457350963692" fill="#444"></circle><circle id="circle" r="2.64006211794057" cx="22.005381889687445" cy="8.516438690866535" fill="#444"></circle><circle id="circle" r="16.654338904608778" cx="462.6559577405276" cy="10.447138615916373" fill="#444"></circle><circle id="circle" r="3.3649651683299346" cx="44.88761088646289" cy="6.571172561334166" fill="#444"></circle><circle id="circle" r="3.775840050412243" cx="57.823145932523914" cy="10.435307126601813" fill="#444"></circle><circle id="circle" r="6.473135701023594" cx="141.91873735335662" cy="20.667996187154714" fill="#444"></circle><circle id="circle" r="2.5639949614411646" cx="19.885945552568394" cy="14.346731277237039" fill="#444"></circle><circle id="circle" r="7.55187162336706" cx="176.4232840308546" cy="3.156457029601628" fill="#444"></circle><circle id="circle" r="2.853851141283331" cx="28.8684094380054" cy="13.541415176577726" fill="#444"></circle><circle id="circle" r="7.010323392671078" cx="160.23991117559086" cy="-1.5111688172093791" fill="#444"></circle><circle id="circle" r="6.718923482274087" cx="149.77755623129448" cy="8.856562010785861" fill="#444"></circle><circle id="circle" r="2.830721837301461" cx="28.26646405411849" cy="6.883999937850188" fill="#444"></circle><circle id="circle" r="2.0139793131220873" cx="2.4394366690117137" cy="10.427979286559443" fill="#444"></circle></g><g id="labels" class="label"><text x="164.00973538601716" y="13.180732595552398" text-anchor="middle" fill="#000"></text><text x="225.07421297530757" y="10.44622908046071" text-anchor="middle" fill="#000"></text><text x="10.467799674192946" y="7.637042332417857" text-anchor="middle" fill="#000"></text><text x="45.28190984139974" y="14.302343626461063" text-anchor="middle" fill="#000"></text><text x="311.6192439166992" y="10.443069894135474" text-anchor="middle" fill="#000"></text><text x="14.656312185123127" y="11.474199500745561" text-anchor="middle" fill="#000"></text><text x="178.58672996199905" y="19.165457350963692" text-anchor="middle" fill="#000"></text><text x="22.005381889687445" y="8.516438690866535" text-anchor="middle" fill="#000"></text><text x="462.6559577405276" y="10.447138615916373" text-anchor="middle" fill="#000"></text><text x="44.88761088646289" y="6.571172561334166" text-anchor="middle" fill="#000"></text><text x="57.823145932523914" y="10.435307126601813" text-anchor="middle" fill="#000"></text><text x="141.91873735335662" y="20.667996187154714" text-anchor="middle" fill="#000"></text><text x="19.885945552568394" y="14.346731277237039" text-anchor="middle" fill="#000"></text><text x="176.4232840308546" y="3.156457029601628" text-anchor="middle" fill="#000"></text><text x="28.8684094380054" y="13.541415176577726" text-anchor="middle" fill="#000"></text><text x="160.23991117559086" y="-1.5111688172093791" text-anchor="middle" fill="#000"></text><text x="149.77755623129448" y="8.856562010785861" text-anchor="middle" fill="#000"></text><text x="28.26646405411849" y="6.883999937850188" text-anchor="middle" fill="#000"></text><text x="2.4394366690117137" y="10.427979286559443" text-anchor="middle" fill="#000"></text></g></g><g id="swarm-Adventure" transform="translate(25,50.89473684210526)"><text x="-25" y="23" style="font-size: 10px; font-family: Arial, Helvetica;">Adventure</text><g id="circles" class="bees"><circle id="circle" r="7.155607373567912" cx="162.69786478220337" cy="6.391333875230862" fill="#444"></circle><circle id="circle" r="9.096413414152256" cx="225.07421297530757" cy="10.44622908046071" fill="#444"></circle><circle id="circle" r="2.2792373127005043" cx="10.82717671040149" cy="5.178694448976375" fill="#444"></circle><circle id="circle" r="2.3627816225429976" cx="13.77244403468455" cy="15.156844283949537" fill="#444"></circle><circle id="circle" r="11.849574841056835" cx="311.6192439166992" cy="10.437071351966159" fill="#444"></circle><circle id="circle" r="2.0149186565057358" cx="2.350681007301998" cy="8.113326747205363" fill="#444"></circle><circle id="circle" r="16.654338904608778" cx="461.5514027639764" cy="24.744978494266036" fill="#444"></circle><circle id="circle" r="3.3649651683299346" cx="44.90738333489309" cy="10.436910817972109" fill="#444"></circle><circle id="circle" r="2.0809391812364106" cx="4.656615276879629" cy="12.65760163401245" fill="#444"></circle><circle id="circle" r="7.55187162336706" cx="178.17279016900872" cy="3.7020421331495483" fill="#444"></circle><circle id="circle" r="2.853851141283331" cx="28.881690964802143" cy="7.143221850575209" fill="#444"></circle><circle id="circle" r="7.41700343685509" cx="172.38826480277757" cy="18.5864042953614" fill="#444"></circle><circle id="circle" r="2.830168371026643" cx="28.054510148588882" cy="13.77585999374488" fill="#444"></circle><circle id="circle" r="2.2781408752974457" cx="10.302568933960126" cy="10.709376081493987" fill="#444"></circle><circle id="circle" r="5.885719070803035" cx="124.14673426915614" cy="10.45358948709841" fill="#444"></circle><circle id="circle" r="6.718923482274087" cx="149.69502971367334" cy="13.600984734164108" fill="#444"></circle><circle id="circle" r="10.848975118395249" cx="280.1656091565111" cy="10.459201688392245" fill="#444"></circle><circle id="circle" r="15.032326495236315" cx="411.6683502632975" cy="10.444670452486855" fill="#444"></circle><circle id="circle" r="17.265440470751194" cx="482.89567485682403" cy="-2.892189241417375" fill="#444"></circle></g><g id="labels" class="label"><text x="162.69786478220337" y="6.391333875230862" text-anchor="middle" fill="#000"></text><text x="225.07421297530757" y="10.44622908046071" text-anchor="middle" fill="#000"></text><text x="10.82717671040149" y="5.178694448976375" text-anchor="middle" fill="#000"></text><text x="13.77244403468455" y="15.156844283949537" text-anchor="middle" fill="#000"></text><text x="311.6192439166992" y="10.437071351966159" text-anchor="middle" fill="#000"></text><text x="2.350681007301998" y="8.113326747205363" text-anchor="middle" fill="#000"></text><text x="461.5514027639764" y="24.744978494266036" text-anchor="middle" fill="#000"></text><text x="44.90738333489309" y="10.436910817972109" text-anchor="middle" fill="#000"></text><text x="4.656615276879629" y="12.65760163401245" text-anchor="middle" fill="#000"></text><text x="178.17279016900872" y="3.7020421331495483" text-anchor="middle" fill="#000"></text><text x="28.881690964802143" y="7.143221850575209" text-anchor="middle" fill="#000"></text><text x="172.38826480277757" y="18.5864042953614" text-anchor="middle" fill="#000"></text><text x="28.054510148588882" y="13.77585999374488" text-anchor="middle" fill="#000"></text><text x="10.302568933960126" y="10.709376081493987" text-anchor="middle" fill="#000"></text><text x="124.14673426915614" y="10.45358948709841" text-anchor="middle" fill="#000"></text><text x="149.69502971367334" y="13.600984734164108" text-anchor="middle" fill="#000"></text><text x="280.1656091565111" y="10.459201688392245" text-anchor="middle" fill="#000"></text><text x="411.6683502632975" y="10.444670452486855" text-anchor="middle" fill="#000"></text><text x="482.89567485682403" y="-2.892189241417375" text-anchor="middle" fill="#000"></text></g></g><g id="swarm-Animation" transform="translate(25,101.78947368421052)"><text x="-25" y="23" style="font-size: 10px; font-family: Arial, Helvetica;">Animation</text><g id="circles" class="bees"><circle id="circle" r="2.0809391812364106" cx="4.516244349189024" cy="13.280629347013047" fill="#444"></circle><circle id="circle" r="2.197836289484796" cx="8.304795435211537" cy="9.604211846714568" fill="#444"></circle><circle id="circle" r="12.409598416821021" cx="329.22346327659073" cy="10.439797835666928" fill="#444"></circle><circle id="circle" r="2.449184665935597" cx="15.812848487355316" cy="9.60021162970667" fill="#444"></circle><circle id="circle" r="7.41700343685509" cx="172.28232542809667" cy="10.443069894135474" fill="#444"></circle><circle id="circle" r="2.0296015331576664" cx="2.8620753225463114" cy="8.444964811875435" fill="#444"></circle><circle id="circle" r="2.616701032255972" cx="21.660904155616997" cy="11.211178483622843" fill="#444"></circle><circle id="circle" r="10.848975118395249" cx="280.16560915651104" cy="10.436899951708316" fill="#444"></circle><circle id="circle" r="15.032326495236315" cx="411.6683502632975" cy="10.447138615916373" fill="#444"></circle><circle id="circle" r="17.265440470751194" cx="481.86580262404783" cy="10.44767677064027" fill="#444"></circle></g><g id="labels" class="label"><text x="4.516244349189024" y="13.280629347013047" text-anchor="middle" fill="#000"></text><text x="8.304795435211537" y="9.604211846714568" text-anchor="middle" fill="#000"></text><text x="329.22346327659073" y="10.439797835666928" text-anchor="middle" fill="#000"></text><text x="15.812848487355316" y="9.60021162970667" text-anchor="middle" fill="#000"></text><text x="172.28232542809667" y="10.443069894135474" text-anchor="middle" fill="#000"></text><text x="2.8620753225463114" y="8.444964811875435" text-anchor="middle" fill="#000"></text><text x="21.660904155616997" y="11.211178483622843" text-anchor="middle" fill="#000"></text><text x="280.16560915651104" y="10.436899951708316" text-anchor="middle" fill="#000"></text><text x="411.6683502632975" y="10.447138615916373" text-anchor="middle" fill="#000"></text><text x="481.86580262404783" y="10.44767677064027" text-anchor="middle" fill="#000"></text></g></g><g id="swarm-Comedy" transform="translate(25,152.68421052631578)"><text x="-25" y="23" style="font-size: 10px; font-family: Arial, Helvetica;">Comedy</text><g id="circles" class="bees"><circle id="circle" r="2.0055820297324725" cx="0.4846514102348985" cy="10.858066508854163" fill="#444"></circle><circle id="circle" r="2.9913581630361605" cx="32.852820685801966" cy="8.350704176071051" fill="#444"></circle><circle id="circle" r="4.693830530814528" cx="86.67997712082176" cy="10.439797835666928" fill="#444"></circle><circle id="circle" r="3.161001823379011" cx="38.77805578069141" cy="12.35668001793072" fill="#444"></circle><circle id="circle" r="7.602650640892512" cx="178.2949607571246" cy="18.18579595268752" fill="#444"></circle><circle id="circle" r="2.64006211794057" cx="22.118685048964682" cy="7.986177707173584" fill="#444"></circle><circle id="circle" r="4.017327486999901" cx="65.26785026284274" cy="14.848046964658721" fill="#444"></circle><circle id="circle" r="2.468350302893262" cx="16.095975614580233" cy="6.953258593995585" fill="#444"></circle><circle id="circle" r="6.751264470808056" cx="152.8621085758731" cy="7.167428150923103" fill="#444"></circle><circle id="circle" r="2.6818830558579467" cx="23.516181617028153" cy="14.151213320785365" fill="#444"></circle><circle id="circle" r="2.0809391812364106" cx="4.718211895639027" cy="1.932249726090252" fill="#444"></circle><circle id="circle" r="2" cx="2.1318760614270613" cy="15.584990151642039" fill="#444"></circle><circle id="circle" r="2.093014152788455" cx="5.502854707930023" cy="11.768484423941262" fill="#444"></circle><circle id="circle" r="9.408393973809002" cx="234.88125404625657" cy="10.44175599764288" fill="#444"></circle><circle id="circle" r="2.4637293287259823" cx="16.674786541148485" cy="18.737908836525104" fill="#444"></circle><circle id="circle" r="8.10717038409571" cx="193.97757337831268" cy="10.432288251142547" fill="#444"></circle><circle id="circle" r="6.4071165645398205" cx="140.0684489673125" cy="13.242200718085224" fill="#444"></circle><circle id="circle" r="6.473135701023594" cx="140.955548082792" cy="-0.6096748991019072" fill="#444"></circle><circle id="circle" r="2.5504148525981654" cx="19.82704057579337" cy="2.235026429972239" fill="#444"></circle><circle id="circle" r="2.215315539636004" cx="9.264829932048272" cy="15.510545918368289" fill="#444"></circle><circle id="circle" r="7.500073688145548" cx="174.7122005235004" cy="2.4867017136763048" fill="#444"></circle><circle id="circle" r="3.7490502725295256" cx="56.98101508864548" cy="10.43738329959832" fill="#444"></circle><circle id="circle" r="2.449184665935597" cx="16.00172089043099" cy="12.86342719658263" fill="#444"></circle><circle id="circle" r="4.099671296451574" cx="68.14391665093545" cy="6.196578363967917" fill="#444"></circle><circle id="circle" r="11.656748568051086" cx="305.5577919435184" cy="10.457260327545013" fill="#444"></circle><circle id="circle" r="2.2781408752974457" cx="10.747561783106805" cy="10.220974136036997" fill="#444"></circle><circle id="circle" r="2.048860904546142" cx="3.6969764400588736" cy="6.957217232336982" fill="#444"></circle><circle id="circle" r="6.958211602590002" cx="158.28532467708916" cy="20.83427808614931" fill="#444"></circle></g><g id="labels" class="label"><text x="0.4846514102348985" y="10.858066508854163" text-anchor="middle" fill="#000"></text><text x="32.852820685801966" y="8.350704176071051" text-anchor="middle" fill="#000"></text><text x="86.67997712082176" y="10.439797835666928" text-anchor="middle" fill="#000"></text><text x="38.77805578069141" y="12.35668001793072" text-anchor="middle" fill="#000"></text><text x="178.2949607571246" y="18.18579595268752" text-anchor="middle" fill="#000"></text><text x="22.118685048964682" y="7.986177707173584" text-anchor="middle" fill="#000"></text><text x="65.26785026284274" y="14.848046964658721" text-anchor="middle" fill="#000"></text><text x="16.095975614580233" y="6.953258593995585" text-anchor="middle" fill="#000"></text><text x="152.8621085758731" y="7.167428150923103" text-anchor="middle" fill="#000"></text><text x="23.516181617028153" y="14.151213320785365" text-anchor="middle" fill="#000"></text><text x="4.718211895639027" y="1.932249726090252" text-anchor="middle" fill="#000"></text><text x="2.1318760614270613" y="15.584990151642039" text-anchor="middle" fill="#000"></text><text x="5.502854707930023" y="11.768484423941262" text-anchor="middle" fill="#000"></text><text x="234.88125404625657" y="10.44175599764288" text-anchor="middle" fill="#000"></text><text x="16.674786541148485" y="18.737908836525104" text-anchor="middle" fill="#000"></text><text x="193.97757337831268" y="10.432288251142547" text-anchor="middle" fill="#000"></text><text x="140.0684489673125" y="13.242200718085224" text-anchor="middle" fill="#000"></text><text x="140.955548082792" y="-0.6096748991019072" text-anchor="middle" fill="#000"></text><text x="19.82704057579337" y="2.235026429972239" text-anchor="middle" fill="#000"></text><text x="9.264829932048272" y="15.510545918368289" text-anchor="middle" fill="#000"></text><text x="174.7122005235004" y="2.4867017136763048" text-anchor="middle" fill="#000"></text><text x="56.98101508864548" y="10.43738329959832" text-anchor="middle" fill="#000"></text><text x="16.00172089043099" y="12.86342719658263" text-anchor="middle" fill="#000"></text><text x="68.14391665093545" y="6.196578363967917" text-anchor="middle" fill="#000"></text><text x="305.5577919435184" y="10.457260327545013" text-anchor="middle" fill="#000"></text><text x="10.747561783106805" y="10.220974136036997" text-anchor="middle" fill="#000"></text><text x="3.6969764400588736" y="6.957217232336982" text-anchor="middle" fill="#000"></text><text x="158.28532467708916" y="20.83427808614931" text-anchor="middle" fill="#000"></text></g></g><g id="swarm-Crime" transform="translate(25,203.57894736842104)"><text x="-25" y="23" style="font-size: 10px; font-family: Arial, Helvetica;">Crime</text><g id="circles" class="bees"><circle id="circle" r="2.6985604545986623" cx="23.959096029340518" cy="10.445148203664452" fill="#444"></circle><circle id="circle" r="2.450522713829449" cx="16.519719426858494" cy="9.766078689532824" fill="#444"></circle><circle id="circle" r="9.338840971541828" cx="232.69487054020584" cy="10.439797835666928" fill="#444"></circle><circle id="circle" r="2.2792373127005043" cx="10.907292161462703" cy="13.179441720842796" fill="#444"></circle><circle id="circle" r="2.3627816225429976" cx="13.131655908617677" cy="5.044215864889537" fill="#444"></circle><circle id="circle" r="7.602650640892512" cx="178.11810492892522" cy="10.440441605947134" fill="#444"></circle><circle id="circle" r="2.0219142547635194" cx="2.7192750692446284" cy="12.926533501803945" fill="#444"></circle><circle id="circle" r="6.473135701023594" cx="142.61204834087184" cy="10.436899951708316" fill="#444"></circle><circle id="circle" r="2.452926491104891" cx="16.21070590073562" cy="15.659635927442386" fill="#444"></circle><circle id="circle" r="2.0043814738117773" cx="2.10689822730605" cy="7.937681594345516" fill="#444"></circle><circle id="circle" r="2.215315539636004" cx="8.544968100125285" cy="8.218717856939536" fill="#444"></circle><circle id="circle" r="3.06816025744539" cx="35.833719887112586" cy="12.582808550388838" fill="#444"></circle><circle id="circle" r="2.914631644788266" cx="30.471343710835008" cy="8.11019136422249" fill="#444"></circle><circle id="circle" r="3.885003068580952" cx="61.56316247891174" cy="7.734464758959531" fill="#444"></circle><circle id="circle" r="3.7004177068337953" cx="55.116050562010145" cy="13.404050089640123" fill="#444"></circle></g><g id="labels" class="label"><text x="23.959096029340518" y="10.445148203664452" text-anchor="middle" fill="#000"></text><text x="16.519719426858494" y="9.766078689532824" text-anchor="middle" fill="#000"></text><text x="232.69487054020584" y="10.439797835666928" text-anchor="middle" fill="#000"></text><text x="10.907292161462703" y="13.179441720842796" text-anchor="middle" fill="#000"></text><text x="13.131655908617677" y="5.044215864889537" text-anchor="middle" fill="#000"></text><text x="178.11810492892522" y="10.440441605947134" text-anchor="middle" fill="#000"></text><text x="2.7192750692446284" y="12.926533501803945" text-anchor="middle" fill="#000"></text><text x="142.61204834087184" y="10.436899951708316" text-anchor="middle" fill="#000"></text><text x="16.21070590073562" y="15.659635927442386" text-anchor="middle" fill="#000"></text><text x="2.10689822730605" y="7.937681594345516" text-anchor="middle" fill="#000"></text><text x="8.544968100125285" y="8.218717856939536" text-anchor="middle" fill="#000"></text><text x="35.833719887112586" y="12.582808550388838" text-anchor="middle" fill="#000"></text><text x="30.471343710835008" y="8.11019136422249" text-anchor="middle" fill="#000"></text><text x="61.56316247891174" y="7.734464758959531" text-anchor="middle" fill="#000"></text><text x="55.116050562010145" y="13.404050089640123" text-anchor="middle" fill="#000"></text></g></g><g id="swarm-Documentary" transform="translate(25,254.4736842105263)"><text x="-25" y="23" style="font-size: 10px; font-family: Arial, Helvetica;">Documentary</text><g id="circles" class="bees"><circle id="circle" r="2.0149186565057358" cx="2.453802205487189" cy="12.96530992148584" fill="#444"></circle><circle id="circle" r="6.818184801650615" cx="153.4585918084082" cy="10.44622908046071" fill="#444"></circle><circle id="circle" r="2.0235712107356574" cx="2.756014606851163" cy="7.935891684079448" fill="#444"></circle><circle id="circle" r="2.853851141283331" cx="28.840625006428155" cy="10.448386107727025" fill="#444"></circle></g><g id="labels" class="label"><text x="2.453802205487189" y="12.96530992148584" text-anchor="middle" fill="#000"></text><text x="153.4585918084082" y="10.44622908046071" text-anchor="middle" fill="#000"></text><text x="2.756014606851163" y="7.935891684079448" text-anchor="middle" fill="#000"></text><text x="28.840625006428155" y="10.448386107727025" text-anchor="middle" fill="#000"></text></g></g><g id="swarm-Drama" transform="translate(25,305.36842105263156)"><text x="-25" y="23" style="font-size: 10px; font-family: Arial, Helvetica;">Drama</text><g id="circles" class="bees"><circle id="circle" r="2.6985604545986623" cx="24.99149826819754" cy="8.44999215180148" fill="#444"></circle><circle id="circle" r="8.479220553783906" cx="206.84719464521353" cy="22.982045612515343" fill="#444"></circle><circle id="circle" r="2.450522713829449" cx="17.346884193956285" cy="18.137488793364657" fill="#444"></circle><circle id="circle" r="4.297820885497173" cx="74.26201537638977" cy="12.46815962081874" fill="#444"></circle><circle id="circle" r="3.269908349050139" cx="44.75539772596401" cy="7.442176635955094" fill="#444"></circle><circle id="circle" r="9.338840971541828" cx="233.9464817940929" cy="-0.07313908065797729" fill="#444"></circle><circle id="circle" r="7.155607373567912" cx="163.96252014711592" cy="14.164616259606227" fill="#444"></circle><circle id="circle" r="2.0055820297324725" cx="-2.7987796190676666" cy="5.991641739283419" fill="#444"></circle><circle id="circle" r="9.096413414152256" cx="224.3677246895776" cy="16.83416473105761" fill="#444"></circle><circle id="circle" r="2.2792373127005043" cx="8.044713914858836" cy="21.432170166711284" fill="#444"></circle><circle id="circle" r="2.176485662963416" cx="7.366068554862841" cy="6.8464668041001415" fill="#444"></circle><circle id="circle" r="2.9913581630361605" cx="33.90431271686752" cy="16.530566536336355" fill="#444"></circle><circle id="circle" r="4.693830530814528" cx="86.72345807625052" cy="10.560774783455177" fill="#444"></circle><circle id="circle" r="2.0070137009973834" cx="2.217233122884084" cy="6.354360952593856" fill="#444"></circle><circle id="circle" r="3.161001823379011" cx="38.29608289550626" cy="3.789002374294154" fill="#444"></circle><circle id="circle" r="7.291516134427613" cx="170.59393453944264" cy="-7.882304723782232" fill="#444"></circle><circle id="circle" r="2.3627816225429976" cx="11.645543986930699" cy="17.148268203233226" fill="#444"></circle><circle id="circle" r="2.593053690060219" cx="21.181170160850243" cy="13.437119696285837" fill="#444"></circle><circle id="circle" r="3.37625422554592" cx="45.527863288051456" cy="-0.15704090464251852" fill="#444"></circle><circle id="circle" r="2.6800842765823183" cx="25.346723348566915" cy="25.09756443491273" fill="#444"></circle><circle id="circle" r="11.849574841056835" cx="311.6192439166992" cy="10.43355004246954" fill="#444"></circle><circle id="circle" r="2.402452110479576" cx="12.911975326599121" cy="7.235045313132948" fill="#444"></circle><circle id="circle" r="4.138740062651028" cx="72.09275571236348" cy="21.65274812068034" fill="#444"></circle><circle id="circle" r="2.6375970356819436" cx="22.316175673630372" cy="2.7472628444917486" fill="#444"></circle><circle id="circle" r="3.4533818360886883" cx="48.150147730831065" cy="20.181206331843576" fill="#444"></circle><circle id="circle" r="2.0219142547635194" cx="-1.994388183477093" cy="19.195778367367144" fill="#444"></circle><circle id="circle" r="2.013721265787977" cx="-0.005389092710580972" cy="1.8572510635514639" fill="#444"></circle><circle id="circle" r="4.017327486999901" cx="63.25658521473519" cy="24.095591409888687" fill="#444"></circle><circle id="circle" r="2.2321024988222113" cx="7.995565253652061" cy="-2.5567946743844705" fill="#444"></circle><circle id="circle" r="2.4311968176494383" cx="15.163688649620982" cy="28.148508731614015" fill="#444"></circle><circle id="circle" r="2.040767369578646" cx="-0.6360634240499664" cy="10.509165288142592" fill="#444"></circle><circle id="circle" r="2.468350302893262" cx="16.226957884360935" cy="2.4141871371816284" fill="#444"></circle><circle id="circle" r="2.971317986060224" cx="31.595880973409788" cy="9.091590755106251" fill="#444"></circle><circle id="circle" r="5.445964432892255" cx="110.32314282526502" cy="10.44338830326393" fill="#444"></circle><circle id="circle" r="2.0149186565057358" cx="1.2548722637234213" cy="15.302442012092083" fill="#444"></circle><circle id="circle" r="6.751264470808056" cx="149.1971722421647" cy="12.304469228053595" fill="#444"></circle><circle id="circle" r="3.865614756820235" cx="59.851724585154834" cy="1.1364381248074054" fill="#444"></circle><circle id="circle" r="2.0647303991198735" cx="4.569953605913116" cy="25.436517755101576" fill="#444"></circle><circle id="circle" r="3.1489362363760227" cx="38.79423701519923" cy="-3.501252226179681" fill="#444"></circle><circle id="circle" r="4.035303007653572" cx="66.95020068208333" cy="6.517896812984206" fill="#444"></circle><circle id="circle" r="2.0809391812364106" cx="5.0728378952892665" cy="2.1515567770478263" fill="#444"></circle><circle id="circle" r="2.526162845581854" cx="18.817416401795796" cy="7.804985695438049" fill="#444"></circle><circle id="circle" r="2" cx="-3.6866397743901116" cy="14.501681917482795" fill="#444"></circle><circle id="circle" r="2.093014152788455" cx="6.289482487426647" cy="16.153642948091413" fill="#444"></circle><circle id="circle" r="2.1899589323248514" cx="10.335044531458522" cy="2.33114898722128" fill="#444"></circle><circle id="circle" r="9.408393973809002" cx="236.77323950623534" cy="31.872014416327875" fill="#444"></circle><circle id="circle" r="2.3213274594570823" cx="9.558106474416084" cy="11.849541179022248" fill="#444"></circle><circle id="circle" r="2.4637293287259823" cx="15.266720957207122" cy="12.60961578544601" fill="#444"></circle><circle id="circle" r="2.2340614262604337" cx="9.701909020188655" cy="26.679947426066803" fill="#444"></circle><circle id="circle" r="3.775840050412243" cx="60.425633377241134" cy="-7.486560011692967" fill="#444"></circle><circle id="circle" r="8.10717038409571" cx="193.32050832917923" cy="11.753767275463364" fill="#444"></circle><circle id="circle" r="6.4071165645398205" cx="139.565031316809" cy="1.9248336355748363" fill="#444"></circle><circle id="circle" r="4.441322857140953" cx="79.02106149084352" cy="3.973330587300152" fill="#444"></circle><circle id="circle" r="6.3156593584166965" cx="135.84458782327854" cy="16.70022983689942" fill="#444"></circle><circle id="circle" r="3.6306471940420444" cx="52.03474765376391" cy="4.4804901466998315" fill="#444"></circle><circle id="circle" r="2.5639949614411646" cx="23.237568843061457" cy="19.22293911096562" fill="#444"></circle><circle id="circle" r="2.329502567812529" cx="13.539601733569258" cy="22.481588953348837" fill="#444"></circle><circle id="circle" r="2.452926491104891" cx="19.419516600808212" cy="-2.612627756412746" fill="#444"></circle><circle id="circle" r="2.0249801147513784" cx="2.9741737617944923" cy="20.04276391652697" fill="#444"></circle><circle id="circle" r="7.559083399432396" cx="177.5654342639232" cy="6.332919505740031" fill="#444"></circle><circle id="circle" r="3.5731560027462854" cx="50.6668067906783" cy="12.561188779550344" fill="#444"></circle><circle id="circle" r="3.053951661464998" cx="35.09696159121011" cy="23.4353698345594" fill="#444"></circle><circle id="circle" r="2.0015969837059795" cx="4.295939192825949" cy="11.333437799512176" fill="#444"></circle><circle id="circle" r="3.10056854818916" cx="38.37933350705159" cy="11.041319873698656" fill="#444"></circle><circle id="circle" r="7.500073688145548" cx="177.27668829462502" cy="22.388030767037172" fill="#444"></circle><circle id="circle" r="2.000414474995008" cx="-2.2945063132598453" cy="-2.6053664815947766" fill="#444"></circle><circle id="circle" r="3.1599285974641504" cx="40.90786842782716" cy="17.84092467635843" fill="#444"></circle><circle id="circle" r="2.3096685177365757" cx="11.138633717153658" cy="-7.971646919169571" fill="#444"></circle><circle id="circle" r="2.047858590283027" cx="2.75429919085114" cy="-2.396923946310861" fill="#444"></circle><circle id="circle" r="2.5408613816588375" cx="19.25399643621729" cy="23.81502322448175" fill="#444"></circle><circle id="circle" r="2.590415909887006" cx="22.863790887652527" cy="-7.605939833857356" fill="#444"></circle><circle id="circle" r="3.7490502725295256" cx="56.763297835878156" cy="18.229851264019615" fill="#444"></circle><circle id="circle" r="25" cx="724.9999999999989" cy="10.443889356209146" fill="#444"></circle><circle id="circle" r="2.449184665935597" cx="16.858840033732772" cy="-8.169635321655113" fill="#444"></circle><circle id="circle" r="4.099671296451574" cx="69.66237226918433" cy="30.567965477473305" fill="#444"></circle><circle id="circle" r="4.046238006379717" cx="67.98049251886333" cy="-2.500737601427552" fill="#444"></circle><circle id="circle" r="2.830168371026643" cx="27.478026621490994" cy="14.460056289570925" fill="#444"></circle><circle id="circle" r="7.117678524664482" cx="163.3366391323827" cy="29.42039449571448" fill="#444"></circle><circle id="circle" r="7.010323392671078" cx="156.83010249768367" cy="-14.560315555930394" fill="#444"></circle><circle id="circle" r="3.06816025744539" cx="35.83150502189417" cy="30.5202606120917" fill="#444"></circle><circle id="circle" r="2.914631644788266" cx="31.40418764571689" cy="2.2369690829726543" fill="#444"></circle><circle id="circle" r="5.885719070803035" cx="122.6463798386577" cy="17.005866848316355" fill="#444"></circle><circle id="circle" r="2.616701032255972" cx="21.055387291265802" cy="29.703194863391676" fill="#444"></circle><circle id="circle" r="2.048860904546142" cx="0.4144843399531953" cy="-6.929191967838516" fill="#444"></circle><circle id="circle" r="3.885003068580952" cx="58.65237140366332" cy="9.794289541636864" fill="#444"></circle><circle id="circle" r="6.958211602590002" cx="157.77598701833242" cy="0.3783035745105387" fill="#444"></circle><circle id="circle" r="8.869411667626593" cx="218.39076476797888" cy="-11.342274105987686" fill="#444"></circle><circle id="circle" r="6.718923482274087" cx="148.74101504224973" cy="26.75721682949958" fill="#444"></circle><circle id="circle" r="5.885975341181112" cx="124.22764209871542" cy="4.332438432839054" fill="#444"></circle><circle id="circle" r="2.3933592598622724" cx="13.579767629587336" cy="-2.8158045991745544" fill="#444"></circle><circle id="circle" r="3.261862847425446" cx="42.216029813972646" cy="25.14651822841222" fill="#444"></circle><circle id="circle" r="2.931785934104695" cx="32.116205318174735" cy="-5.8366002268872785" fill="#444"></circle><circle id="circle" r="2.0350018691356286" cx="1.5836319123263052" cy="29.57311090495326" fill="#444"></circle><circle id="circle" r="8.6664993366401" cx="209.77371664645975" cy="5.068895213395777" fill="#444"></circle><circle id="circle" r="2.830721837301461" cx="26.37517391977057" cy="-2.262797328581397" fill="#444"></circle><circle id="circle" r="14.9682035374308" cx="409.6526590244546" cy="10.473420221692619" fill="#444"></circle><circle id="circle" r="3.7004177068337953" cx="52.7985699116412" cy="-3.802901998415437" fill="#444"></circle><circle id="circle" r="3.9647392505821193" cx="65.49166443174282" cy="15.410516908516948" fill="#444"></circle><circle id="circle" r="2.0139793131220873" cx="-0.27207351822622206" cy="23.911767430186526" fill="#444"></circle><circle id="circle" r="2.2248400795098977" cx="5.659985673684279" cy="-7.473836598309332" fill="#444"></circle></g><g id="labels" class="label"><text x="24.99149826819754" y="8.44999215180148" text-anchor="middle" fill="#000"></text><text x="206.84719464521353" y="22.982045612515343" text-anchor="middle" fill="#000"></text><text x="17.346884193956285" y="18.137488793364657" text-anchor="middle" fill="#000"></text><text x="74.26201537638977" y="12.46815962081874" text-anchor="middle" fill="#000"></text><text x="44.75539772596401" y="7.442176635955094" text-anchor="middle" fill="#000"></text><text x="233.9464817940929" y="-0.07313908065797729" text-anchor="middle" fill="#000"></text><text x="163.96252014711592" y="14.164616259606227" text-anchor="middle" fill="#000"></text><text x="-2.7987796190676666" y="5.991641739283419" text-anchor="middle" fill="#000"></text><text x="224.3677246895776" y="16.83416473105761" text-anchor="middle" fill="#000"></text><text x="8.044713914858836" y="21.432170166711284" text-anchor="middle" fill="#000"></text><text x="7.366068554862841" y="6.8464668041001415" text-anchor="middle" fill="#000"></text><text x="33.90431271686752" y="16.530566536336355" text-anchor="middle" fill="#000"></text><text x="86.72345807625052" y="10.560774783455177" text-anchor="middle" fill="#000"></text><text x="2.217233122884084" y="6.354360952593856" text-anchor="middle" fill="#000"></text><text x="38.29608289550626" y="3.789002374294154" text-anchor="middle" fill="#000"></text><text x="170.59393453944264" y="-7.882304723782232" text-anchor="middle" fill="#000"></text><text x="11.645543986930699" y="17.148268203233226" text-anchor="middle" fill="#000"></text><text x="21.181170160850243" y="13.437119696285837" text-anchor="middle" fill="#000"></text><text x="45.527863288051456" y="-0.15704090464251852" text-anchor="middle" fill="#000"></text><text x="25.346723348566915" y="25.09756443491273" text-anchor="middle" fill="#000"></text><text x="311.6192439166992" y="10.43355004246954" text-anchor="middle" fill="#000"></text><text x="12.911975326599121" y="7.235045313132948" text-anchor="middle" fill="#000"></text><text x="72.09275571236348" y="21.65274812068034" text-anchor="middle" fill="#000"></text><text x="22.316175673630372" y="2.7472628444917486" text-anchor="middle" fill="#000"></text><text x="48.150147730831065" y="20.181206331843576" text-anchor="middle" fill="#000"></text><text x="-1.994388183477093" y="19.195778367367144" text-anchor="middle" fill="#000"></text><text x="-0.005389092710580972" y="1.8572510635514639" text-anchor="middle" fill="#000"></text><text x="63.25658521473519" y="24.095591409888687" text-anchor="middle" fill="#000"></text><text x="7.995565253652061" y="-2.5567946743844705" text-anchor="middle" fill="#000"></text><text x="15.163688649620982" y="28.148508731614015" text-anchor="middle" fill="#000"></text><text x="-0.6360634240499664" y="10.509165288142592" text-anchor="middle" fill="#000"></text><text x="16.226957884360935" y="2.4141871371816284" text-anchor="middle" fill="#000"></text><text x="31.595880973409788" y="9.091590755106251" text-anchor="middle" fill="#000"></text><text x="110.32314282526502" y="10.44338830326393" text-anchor="middle" fill="#000"></text><text x="1.2548722637234213" y="15.302442012092083" text-anchor="middle" fill="#000"></text><text x="149.1971722421647" y="12.304469228053595" text-anchor="middle" fill="#000"></text><text x="59.851724585154834" y="1.1364381248074054" text-anchor="middle" fill="#000"></text><text x="4.569953605913116" y="25.436517755101576" text-anchor="middle" fill="#000"></text><text x="38.79423701519923" y="-3.501252226179681" text-anchor="middle" fill="#000"></text><text x="66.95020068208333" y="6.517896812984206" text-anchor="middle" fill="#000"></text><text x="5.0728378952892665" y="2.1515567770478263" text-anchor="middle" fill="#000"></text><text x="18.817416401795796" y="7.804985695438049" text-anchor="middle" fill="#000"></text><text x="-3.6866397743901116" y="14.501681917482795" text-anchor="middle" fill="#000"></text><text x="6.289482487426647" y="16.153642948091413" text-anchor="middle" fill="#000"></text><text x="10.335044531458522" y="2.33114898722128" text-anchor="middle" fill="#000"></text><text x="236.77323950623534" y="31.872014416327875" text-anchor="middle" fill="#000"></text><text x="9.558106474416084" y="11.849541179022248" text-anchor="middle" fill="#000"></text><text x="15.266720957207122" y="12.60961578544601" text-anchor="middle" fill="#000"></text><text x="9.701909020188655" y="26.679947426066803" text-anchor="middle" fill="#000"></text><text x="60.425633377241134" y="-7.486560011692967" text-anchor="middle" fill="#000"></text><text x="193.32050832917923" y="11.753767275463364" text-anchor="middle" fill="#000"></text><text x="139.565031316809" y="1.9248336355748363" text-anchor="middle" fill="#000"></text><text x="79.02106149084352" y="3.973330587300152" text-anchor="middle" fill="#000"></text><text x="135.84458782327854" y="16.70022983689942" text-anchor="middle" fill="#000"></text><text x="52.03474765376391" y="4.4804901466998315" text-anchor="middle" fill="#000"></text><text x="23.237568843061457" y="19.22293911096562" text-anchor="middle" fill="#000"></text><text x="13.539601733569258" y="22.481588953348837" text-anchor="middle" fill="#000"></text><text x="19.419516600808212" y="-2.612627756412746" text-anchor="middle" fill="#000"></text><text x="2.9741737617944923" y="20.04276391652697" text-anchor="middle" fill="#000"></text><text x="177.5654342639232" y="6.332919505740031" text-anchor="middle" fill="#000"></text><text x="50.6668067906783" y="12.561188779550344" text-anchor="middle" fill="#000"></text><text x="35.09696159121011" y="23.4353698345594" text-anchor="middle" fill="#000"></text><text x="4.295939192825949" y="11.333437799512176" text-anchor="middle" fill="#000"></text><text x="38.37933350705159" y="11.041319873698656" text-anchor="middle" fill="#000"></text><text x="177.27668829462502" y="22.388030767037172" text-anchor="middle" fill="#000"></text><text x="-2.2945063132598453" y="-2.6053664815947766" text-anchor="middle" fill="#000"></text><text x="40.90786842782716" y="17.84092467635843" text-anchor="middle" fill="#000"></text><text x="11.138633717153658" y="-7.971646919169571" text-anchor="middle" fill="#000"></text><text x="2.75429919085114" y="-2.396923946310861" text-anchor="middle" fill="#000"></text><text x="19.25399643621729" y="23.81502322448175" text-anchor="middle" fill="#000"></text><text x="22.863790887652527" y="-7.605939833857356" text-anchor="middle" fill="#000"></text><text x="56.763297835878156" y="18.229851264019615" text-anchor="middle" fill="#000"></text><text x="724.9999999999989" y="10.443889356209146" text-anchor="middle" fill="#000"></text><text x="16.858840033732772" y="-8.169635321655113" text-anchor="middle" fill="#000"></text><text x="69.66237226918433" y="30.567965477473305" text-anchor="middle" fill="#000"></text><text x="67.98049251886333" y="-2.500737601427552" text-anchor="middle" fill="#000"></text><text x="27.478026621490994" y="14.460056289570925" text-anchor="middle" fill="#000"></text><text x="163.3366391323827" y="29.42039449571448" text-anchor="middle" fill="#000"></text><text x="156.83010249768367" y="-14.560315555930394" text-anchor="middle" fill="#000"></text><text x="35.83150502189417" y="30.5202606120917" text-anchor="middle" fill="#000"></text><text x="31.40418764571689" y="2.2369690829726543" text-anchor="middle" fill="#000"></text><text x="122.6463798386577" y="17.005866848316355" text-anchor="middle" fill="#000"></text><text x="21.055387291265802" y="29.703194863391676" text-anchor="middle" fill="#000"></text><text x="0.4144843399531953" y="-6.929191967838516" text-anchor="middle" fill="#000"></text><text x="58.65237140366332" y="9.794289541636864" text-anchor="middle" fill="#000"></text><text x="157.77598701833242" y="0.3783035745105387" text-anchor="middle" fill="#000"></text><text x="218.39076476797888" y="-11.342274105987686" text-anchor="middle" fill="#000"></text><text x="148.74101504224973" y="26.75721682949958" text-anchor="middle" fill="#000"></text><text x="124.22764209871542" y="4.332438432839054" text-anchor="middle" fill="#000"></text><text x="13.579767629587336" y="-2.8158045991745544" text-anchor="middle" fill="#000"></text><text x="42.216029813972646" y="25.14651822841222" text-anchor="middle" fill="#000"></text><text x="32.116205318174735" y="-5.8366002268872785" text-anchor="middle" fill="#000"></text><text x="1.5836319123263052" y="29.57311090495326" text-anchor="middle" fill="#000"></text><text x="209.77371664645975" y="5.068895213395777" text-anchor="middle" fill="#000"></text><text x="26.37517391977057" y="-2.262797328581397" text-anchor="middle" fill="#000"></text><text x="409.6526590244546" y="10.473420221692619" text-anchor="middle" fill="#000"></text><text x="52.7985699116412" y="-3.802901998415437" text-anchor="middle" fill="#000"></text><text x="65.49166443174282" y="15.410516908516948" text-anchor="middle" fill="#000"></text><text x="-0.27207351822622206" y="23.911767430186526" text-anchor="middle" fill="#000"></text><text x="5.659985673684279" y="-7.473836598309332" text-anchor="middle" fill="#000"></text></g></g><g id="swarm-Family" transform="translate(25,356.2631578947368)"><text x="-25" y="23" style="font-size: 10px; font-family: Arial, Helvetica;">Family</text><g id="circles" class="bees"><circle id="circle" r="4.297820885497173" cx="74.23150000932405" cy="10.444144799602325" fill="#444"></circle><circle id="circle" r="3.161001823379011" cx="38.49583992621841" cy="10.44622908046071" fill="#444"></circle><circle id="circle" r="2.197836289484796" cx="8.233300006036515" cy="10.519251687264203" fill="#444"></circle><circle id="circle" r="6.818184801650615" cx="153.4585918084082" cy="10.448386107727025" fill="#444"></circle><circle id="circle" r="12.409598416821021" cx="329.22346327659073" cy="10.443069894135474" fill="#444"></circle><circle id="circle" r="2.000414474995008" cx="1.9294240758451364" cy="12.821390635672369" fill="#444"></circle><circle id="circle" r="2.449184665935597" cx="16.12002232484505" cy="10.4514437726941" fill="#444"></circle><circle id="circle" r="2.048860904546142" cx="3.600301960043451" cy="8.05658749655568" fill="#444"></circle><circle id="circle" r="17.265440470751194" cx="481.86580262404783" cy="10.447138615916373" fill="#444"></circle></g><g id="labels" class="label"><text x="74.23150000932405" y="10.444144799602325" text-anchor="middle" fill="#000"></text><text x="38.49583992621841" y="10.44622908046071" text-anchor="middle" fill="#000"></text><text x="8.233300006036515" y="10.519251687264203" text-anchor="middle" fill="#000"></text><text x="153.4585918084082" y="10.448386107727025" text-anchor="middle" fill="#000"></text><text x="329.22346327659073" y="10.443069894135474" text-anchor="middle" fill="#000"></text><text x="1.9294240758451364" y="12.821390635672369" text-anchor="middle" fill="#000"></text><text x="16.12002232484505" y="10.4514437726941" text-anchor="middle" fill="#000"></text><text x="3.600301960043451" y="8.05658749655568" text-anchor="middle" fill="#000"></text><text x="481.86580262404783" y="10.447138615916373" text-anchor="middle" fill="#000"></text></g></g><g id="swarm-Fantasy" transform="translate(25,407.1578947368421)"><text x="-25" y="23" style="font-size: 10px; font-family: Arial, Helvetica;">Fantasy</text><g id="circles" class="bees"><circle id="circle" r="9.338840971541828" cx="232.69487054020584" cy="10.444144799602325" fill="#444"></circle><circle id="circle" r="7.602650640892512" cx="178.43480155634012" cy="17.598016635034817" fill="#444"></circle><circle id="circle" r="2.040767369578646" cx="3.281513400233022" cy="10.439538375605991" fill="#444"></circle><circle id="circle" r="16.654338904608778" cx="461.551402763873" cy="24.750286771154613" fill="#444"></circle><circle id="circle" r="2.197836289484796" cx="8.074586301858188" cy="8.026983433013903" fill="#444"></circle><circle id="circle" r="7.41700343685509" cx="171.9506021109853" cy="2.949314497181245" fill="#444"></circle><circle id="circle" r="2.2781408752974457" cx="10.879427632405244" cy="12.730087835392357" fill="#444"></circle><circle id="circle" r="10.848975118395249" cx="280.16560915651104" cy="10.436899951708316" fill="#444"></circle><circle id="circle" r="15.032326495236315" cx="411.66835026329755" cy="10.446690608403603" fill="#444"></circle><circle id="circle" r="17.265440470751194" cx="482.8956748569203" cy="-2.886880964374615" fill="#444"></circle></g><g id="labels" class="label"><text x="232.69487054020584" y="10.444144799602325" text-anchor="middle" fill="#000"></text><text x="178.43480155634012" y="17.598016635034817" text-anchor="middle" fill="#000"></text><text x="3.281513400233022" y="10.439538375605991" text-anchor="middle" fill="#000"></text><text x="461.551402763873" y="24.750286771154613" text-anchor="middle" fill="#000"></text><text x="8.074586301858188" y="8.026983433013903" text-anchor="middle" fill="#000"></text><text x="171.9506021109853" y="2.949314497181245" text-anchor="middle" fill="#000"></text><text x="10.879427632405244" y="12.730087835392357" text-anchor="middle" fill="#000"></text><text x="280.16560915651104" y="10.436899951708316" text-anchor="middle" fill="#000"></text><text x="411.66835026329755" y="10.446690608403603" text-anchor="middle" fill="#000"></text><text x="482.8956748569203" y="-2.886880964374615" text-anchor="middle" fill="#000"></text></g></g><g id="swarm-Foreign" transform="translate(25,458.05263157894734)"><text x="-25" y="23" style="font-size: 10px; font-family: Arial, Helvetica;">Foreign</text><g id="circles" class="bees"><circle id="circle" r="2" cx="1.9999999999999976" cy="10.444144799602325" fill="#444"></circle></g><g id="labels" class="label"><text x="1.9999999999999976" y="10.444144799602325" text-anchor="middle" fill="#000"></text></g></g><g id="swarm-History" transform="translate(25,508.9473684210526)"><text x="-25" y="23" style="font-size: 10px; font-family: Arial, Helvetica;">History</text><g id="circles" class="bees"><circle id="circle" r="3.269908349050139" cx="41.919292885358665" cy="10.443252835825247" fill="#444"></circle><circle id="circle" r="7.291516134427613" cx="167.79953960496314" cy="10.579223329884076" fill="#444"></circle><circle id="circle" r="11.849574841056835" cx="311.6192439166992" cy="10.439797835666928" fill="#444"></circle><circle id="circle" r="2.1899589323248514" cx="7.909617333470034" cy="7.778300564499807" fill="#444"></circle><circle id="circle" r="3.775840050412243" cx="58.159932699303916" cy="8.339730758334044" fill="#444"></circle><circle id="circle" r="4.441322857140953" cx="78.7424532918655" cy="10.440441605947134" fill="#444"></circle><circle id="circle" r="6.3156593584166965" cx="137.0956629247331" cy="9.403862204707558" fill="#444"></circle><circle id="circle" r="2.5639949614411646" cx="19.682521913919402" cy="13.504634402228495" fill="#444"></circle><circle id="circle" r="3.5731560027462854" cx="51.08067860611646" cy="12.765778270476819" fill="#444"></circle><circle id="circle" r="7.55187162336706" cx="177.52253578611607" cy="23.080986169329517" fill="#444"></circle><circle id="circle" r="2.590415909887006" cx="20.605340548043117" cy="7.419802527670547" fill="#444"></circle><circle id="circle" r="25" cx="724.999999999999" cy="10.453909446674569" fill="#444"></circle><circle id="circle" r="7.117678524664482" cx="162.31809160018037" cy="-3.814849259246742" fill="#444"></circle><circle id="circle" r="5.885719070803035" cx="123.94647822265095" cy="10.542732453789279" fill="#444"></circle><circle id="circle" r="6.718923482274087" cx="150.99969550625607" cy="11.3083875970841" fill="#444"></circle><circle id="circle" r="14.9682035374308" cx="409.6526590244546" cy="10.432293482265822" fill="#444"></circle><circle id="circle" r="2.2248400795098977" cx="9.127929865584536" cy="13.054261416577779" fill="#444"></circle></g><g id="labels" class="label"><text x="41.919292885358665" y="10.443252835825247" text-anchor="middle" fill="#000"></text><text x="167.79953960496314" y="10.579223329884076" text-anchor="middle" fill="#000"></text><text x="311.6192439166992" y="10.439797835666928" text-anchor="middle" fill="#000"></text><text x="7.909617333470034" y="7.778300564499807" text-anchor="middle" fill="#000"></text><text x="58.159932699303916" y="8.339730758334044" text-anchor="middle" fill="#000"></text><text x="78.7424532918655" y="10.440441605947134" text-anchor="middle" fill="#000"></text><text x="137.0956629247331" y="9.403862204707558" text-anchor="middle" fill="#000"></text><text x="19.682521913919402" y="13.504634402228495" text-anchor="middle" fill="#000"></text><text x="51.08067860611646" y="12.765778270476819" text-anchor="middle" fill="#000"></text><text x="177.52253578611607" y="23.080986169329517" text-anchor="middle" fill="#000"></text><text x="20.605340548043117" y="7.419802527670547" text-anchor="middle" fill="#000"></text><text x="724.999999999999" y="10.453909446674569" text-anchor="middle" fill="#000"></text><text x="162.31809160018037" y="-3.814849259246742" text-anchor="middle" fill="#000"></text><text x="123.94647822265095" y="10.542732453789279" text-anchor="middle" fill="#000"></text><text x="150.99969550625607" y="11.3083875970841" text-anchor="middle" fill="#000"></text><text x="409.6526590244546" y="10.432293482265822" text-anchor="middle" fill="#000"></text><text x="9.127929865584536" y="13.054261416577779" text-anchor="middle" fill="#000"></text></g></g><g id="swarm-Horror" transform="translate(25,559.8421052631579)"><text x="-25" y="23" style="font-size: 10px; font-family: Arial, Helvetica;">Horror</text><g id="circles" class="bees"><circle id="circle" r="6.592308978892206" cx="146.35823442343732" cy="10.444144799602325" fill="#444"></circle><circle id="circle" r="2.1166317309706333" cx="5.853734651419345" cy="8.872207997871667" fill="#444"></circle><circle id="circle" r="3.689657682747156" cx="55.11402194026923" cy="10.439797835666928" fill="#444"></circle><circle id="circle" r="2.0043814738117773" cx="1.9331097283758274" cy="12.166669479869268" fill="#444"></circle></g><g id="labels" class="label"><text x="146.35823442343732" y="10.444144799602325" text-anchor="middle" fill="#000"></text><text x="5.853734651419345" y="8.872207997871667" text-anchor="middle" fill="#000"></text><text x="55.11402194026923" y="10.439797835666928" text-anchor="middle" fill="#000"></text><text x="1.9331097283758274" y="12.166669479869268" text-anchor="middle" fill="#000"></text></g></g><g id="swarm-Music" transform="translate(25,610.7368421052631)"><text x="-25" y="23" style="font-size: 10px; font-family: Arial, Helvetica;">Music</text><g id="circles" class="bees"><circle id="circle" r="2.0055820297324725" cx="2.175469891155548" cy="10.444144799602325" fill="#444"></circle><circle id="circle" r="2.6818830558579467" cx="23.693157421506793" cy="9.025789328939219" fill="#444"></circle><circle id="circle" r="3.1489362363760227" cx="38.11656082173317" cy="10.439797835666928" fill="#444"></circle><circle id="circle" r="2.526162845581854" cx="18.254234478215256" cy="12.018772979298916" fill="#444"></circle><circle id="circle" r="8.10717038409571" cx="193.97757337831268" cy="10.443069894135474" fill="#444"></circle></g><g id="labels" class="label"><text x="2.175469891155548" y="10.444144799602325" text-anchor="middle" fill="#000"></text><text x="23.693157421506793" y="9.025789328939219" text-anchor="middle" fill="#000"></text><text x="38.11656082173317" y="10.439797835666928" text-anchor="middle" fill="#000"></text><text x="18.254234478215256" y="12.018772979298916" text-anchor="middle" fill="#000"></text><text x="193.97757337831268" y="10.443069894135474" text-anchor="middle" fill="#000"></text></g></g><g id="swarm-Mystery" transform="translate(25,661.6315789473683)"><text x="-25" y="23" style="font-size: 10px; font-family: Arial, Helvetica;">Mystery</text><g id="circles" class="bees"><circle id="circle" r="2.6985604545986623" cx="22.953036055598776" cy="10.432910182765955" fill="#444"></circle><circle id="circle" r="2.1166317309706333" cx="5.853734653827998" cy="8.873787486609611" fill="#444"></circle><circle id="circle" r="2.450522713829449" cx="16.55768672213373" cy="9.418875421815697" fill="#444"></circle><circle id="circle" r="3.689657682747156" cx="54.75733953995169" cy="13.16301814092347" fill="#444"></circle><circle id="circle" r="2.526162845581854" cx="18.715511680541454" cy="14.98997628740548" fill="#444"></circle><circle id="circle" r="2.329502567812529" cx="12.037833411488773" cy="13.021589021662098" fill="#444"></circle><circle id="circle" r="2.0043814738117773" cx="1.9331097257464098" cy="12.16824896261158" fill="#444"></circle><circle id="circle" r="2.830168371026643" cx="28.56159453399051" cy="7.088579402373302" fill="#444"></circle><circle id="circle" r="3.06816025744539" cx="35.577385484044186" cy="10.447281347284475" fill="#444"></circle><circle id="circle" r="3.885003068580952" cx="61.58027259493325" cy="7.96952302418304" fill="#444"></circle><circle id="circle" r="2.3933592598622724" cx="14.064112851544804" cy="4.136408928611178" fill="#444"></circle><circle id="circle" r="2.830721837301461" cx="28.578730709788108" cy="13.749447567923811" fill="#444"></circle></g><g id="labels" class="label"><text x="22.953036055598776" y="10.432910182765955" text-anchor="middle" fill="#000"></text><text x="5.853734653827998" y="8.873787486609611" text-anchor="middle" fill="#000"></text><text x="16.55768672213373" y="9.418875421815697" text-anchor="middle" fill="#000"></text><text x="54.75733953995169" y="13.16301814092347" text-anchor="middle" fill="#000"></text><text x="18.715511680541454" y="14.98997628740548" text-anchor="middle" fill="#000"></text><text x="12.037833411488773" y="13.021589021662098" text-anchor="middle" fill="#000"></text><text x="1.9331097257464098" y="12.16824896261158" text-anchor="middle" fill="#000"></text><text x="28.56159453399051" y="7.088579402373302" text-anchor="middle" fill="#000"></text><text x="35.577385484044186" y="10.447281347284475" text-anchor="middle" fill="#000"></text><text x="61.58027259493325" y="7.96952302418304" text-anchor="middle" fill="#000"></text><text x="14.064112851544804" y="4.136408928611178" text-anchor="middle" fill="#000"></text><text x="28.578730709788108" y="13.749447567923811" text-anchor="middle" fill="#000"></text></g></g><g id="swarm-Romance" transform="translate(25,712.5263157894736)"><text x="-25" y="23" style="font-size: 10px; font-family: Arial, Helvetica;">Romance</text><g id="circles" class="bees"><circle id="circle" r="8.479220553783906" cx="205.09222148324295" cy="16.185373262637587" fill="#444"></circle><circle id="circle" r="7.155607373567912" cx="164.42630757121356" cy="8.507969897107603" fill="#444"></circle><circle id="circle" r="2.176485662963416" cx="7.312362632946981" cy="12.04281484178085" fill="#444"></circle><circle id="circle" r="2.6800842765823183" cx="24.135395243453882" cy="11.411392378775947" fill="#444"></circle><circle id="circle" r="5.445964432892255" cx="110.3231428252651" cy="10.443069894135474" fill="#444"></circle><circle id="circle" r="4.553258315432352" cx="82.26112008946035" cy="10.440397795213856" fill="#444"></circle><circle id="circle" r="6.751264470808056" cx="151.35151632819546" cy="15.666190612277129" fill="#444"></circle><circle id="circle" r="3.865614756820235" cx="60.76055536073566" cy="8.605904509920537" fill="#444"></circle><circle id="circle" r="3.1489362363760227" cx="38.6793862141633" cy="10.66375405663268" fill="#444"></circle><circle id="circle" r="2.526162845581854" cx="18.21009947223936" cy="13.258047601846574" fill="#444"></circle><circle id="circle" r="9.408393973809002" cx="235.20823192681527" cy="12.147866772970055" fill="#444"></circle><circle id="circle" r="2.3213274594570823" cx="12.741506362975455" cy="11.190751163591955" fill="#444"></circle><circle id="circle" r="2.2340614262604337" cx="9.149969499140814" cy="6.952448600547615" fill="#444"></circle><circle id="circle" r="6.4071165645398205" cx="140.09718385752765" cy="7.075512281566503" fill="#444"></circle><circle id="circle" r="3.6306471940420444" cx="52.90540838624808" cy="11.841902165945102" fill="#444"></circle><circle id="circle" r="2.5639949614411646" cx="19.440288588801454" cy="7.293281940610638" fill="#444"></circle><circle id="circle" r="2.0249801147513784" cx="2.333316797795355" cy="10.546003793283312" fill="#444"></circle><circle id="circle" r="3.10056854818916" cx="36.371791774693456" cy="3.793409246205472" fill="#444"></circle><circle id="circle" r="2.000414474995008" cx="1.9764315871369147" cy="5.534760391897718" fill="#444"></circle><circle id="circle" r="2.047858590283027" cx="3.40023525152112" cy="15.503364707314175" fill="#444"></circle><circle id="circle" r="3.7490502725295256" cx="56.42771875710533" cy="1.1655271279711061" fill="#444"></circle><circle id="circle" r="4.099671296451574" cx="68.77132053441" cy="12.624856532978148" fill="#444"></circle><circle id="circle" r="3.06816025744539" cx="35.21722419319924" cy="16.994043419132783" fill="#444"></circle><circle id="circle" r="11.656748568051086" cx="305.5577919435184" cy="10.429707689562836" fill="#444"></circle><circle id="circle" r="3.885003068580952" cx="61.1279274133126" cy="17.34745275080646" fill="#444"></circle><circle id="circle" r="8.869411667626593" cx="218.10609429114908" cy="3.251200057862958" fill="#444"></circle></g><g id="labels" class="label"><text x="205.09222148324295" y="16.185373262637587" text-anchor="middle" fill="#000"></text><text x="164.42630757121356" y="8.507969897107603" text-anchor="middle" fill="#000"></text><text x="7.312362632946981" y="12.04281484178085" text-anchor="middle" fill="#000"></text><text x="24.135395243453882" y="11.411392378775947" text-anchor="middle" fill="#000"></text><text x="110.3231428252651" y="10.443069894135474" text-anchor="middle" fill="#000"></text><text x="82.26112008946035" y="10.440397795213856" text-anchor="middle" fill="#000"></text><text x="151.35151632819546" y="15.666190612277129" text-anchor="middle" fill="#000"></text><text x="60.76055536073566" y="8.605904509920537" text-anchor="middle" fill="#000"></text><text x="38.6793862141633" y="10.66375405663268" text-anchor="middle" fill="#000"></text><text x="18.21009947223936" y="13.258047601846574" text-anchor="middle" fill="#000"></text><text x="235.20823192681527" y="12.147866772970055" text-anchor="middle" fill="#000"></text><text x="12.741506362975455" y="11.190751163591955" text-anchor="middle" fill="#000"></text><text x="9.149969499140814" y="6.952448600547615" text-anchor="middle" fill="#000"></text><text x="140.09718385752765" y="7.075512281566503" text-anchor="middle" fill="#000"></text><text x="52.90540838624808" y="11.841902165945102" text-anchor="middle" fill="#000"></text><text x="19.440288588801454" y="7.293281940610638" text-anchor="middle" fill="#000"></text><text x="2.333316797795355" y="10.546003793283312" text-anchor="middle" fill="#000"></text><text x="36.371791774693456" y="3.793409246205472" text-anchor="middle" fill="#000"></text><text x="1.9764315871369147" y="5.534760391897718" text-anchor="middle" fill="#000"></text><text x="3.40023525152112" y="15.503364707314175" text-anchor="middle" fill="#000"></text><text x="56.42771875710533" y="1.1655271279711061" text-anchor="middle" fill="#000"></text><text x="68.77132053441" y="12.624856532978148" text-anchor="middle" fill="#000"></text><text x="35.21722419319924" y="16.994043419132783" text-anchor="middle" fill="#000"></text><text x="305.5577919435184" y="10.429707689562836" text-anchor="middle" fill="#000"></text><text x="61.1279274133126" y="17.34745275080646" text-anchor="middle" fill="#000"></text><text x="218.10609429114908" y="3.251200057862958" text-anchor="middle" fill="#000"></text></g></g><g id="swarm-Science Fiction" transform="translate(25,763.421052631579)"><text x="-25" y="23" style="font-size: 10px; font-family: Arial, Helvetica;">Science Fiction</text><g id="circles" class="bees"><circle id="circle" r="6.592308978892206" cx="145.68711353744752" cy="6.793135171491546" fill="#444"></circle><circle id="circle" r="2.1166317309706333" cx="6.34974973424736" cy="10.519672186726535" fill="#444"></circle><circle id="circle" r="16.654338904608778" cx="462.6559577405276" cy="10.439797835666928" fill="#444"></circle><circle id="circle" r="3.3649651683299346" cx="44.907383334893105" cy="10.448386107727025" fill="#444"></circle><circle id="circle" r="2.5504148525981654" cx="19.318802862496035" cy="13.475494174514758" fill="#444"></circle><circle id="circle" r="2.5408613816588375" cx="18.985123660124074" cy="7.393364255487329" fill="#444"></circle><circle id="circle" r="4.046238006379717" cx="66.32304689619706" cy="10.4514437726941" fill="#444"></circle><circle id="circle" r="2.830168371026643" cx="28.096162271837475" cy="10.433205568594145" fill="#444"></circle><circle id="circle" r="2.0296015331576664" cx="2.547807885446917" cy="13.98804237487846" fill="#444"></circle><circle id="circle" r="6.958211602590002" cx="158.46718919707274" cy="13.749234317305362" fill="#444"></circle><circle id="circle" r="2.0350018691356286" cx="2.753175750938632" cy="6.831224574243655" fill="#444"></circle></g><g id="labels" class="label"><text x="145.68711353744752" y="6.793135171491546" text-anchor="middle" fill="#000"></text><text x="6.34974973424736" y="10.519672186726535" text-anchor="middle" fill="#000"></text><text x="462.6559577405276" y="10.439797835666928" text-anchor="middle" fill="#000"></text><text x="44.907383334893105" y="10.448386107727025" text-anchor="middle" fill="#000"></text><text x="19.318802862496035" y="13.475494174514758" text-anchor="middle" fill="#000"></text><text x="18.985123660124074" y="7.393364255487329" text-anchor="middle" fill="#000"></text><text x="66.32304689619706" y="10.4514437726941" text-anchor="middle" fill="#000"></text><text x="28.096162271837475" y="10.433205568594145" text-anchor="middle" fill="#000"></text><text x="2.547807885446917" y="13.98804237487846" text-anchor="middle" fill="#000"></text><text x="158.46718919707274" y="13.749234317305362" text-anchor="middle" fill="#000"></text><text x="2.753175750938632" y="6.831224574243655" text-anchor="middle" fill="#000"></text></g></g><g id="swarm-Thriller" transform="translate(25,814.3157894736842)"><text x="-25" y="23" style="font-size: 10px; font-family: Arial, Helvetica;">Thriller</text><g id="circles" class="bees"><circle id="circle" r="6.592308978892206" cx="146.35823442343732" cy="10.443915790990795" fill="#444"></circle><circle id="circle" r="2.6985604545986623" cx="23.718952737682244" cy="12.846043349090378" fill="#444"></circle><circle id="circle" r="2.450522713829449" cx="16.81820769766755" cy="13.250190234155047" fill="#444"></circle><circle id="circle" r="2.2792373127005043" cx="10.296076055716028" cy="12.78805866702969" fill="#444"></circle><circle id="circle" r="2.3627816225429976" cx="13.075731367390947" cy="17.69674644037545" fill="#444"></circle><circle id="circle" r="2.402452110479576" cx="13.737798067791404" cy="8.27387437212744" fill="#444"></circle><circle id="circle" r="3.4533818360886883" cx="47.78673952840436" cy="13.649440854373156" fill="#444"></circle><circle id="circle" r="2.0219142547635194" cx="2.781256958885795" cy="5.550848464034788" fill="#444"></circle><circle id="circle" r="16.654338904608778" cx="462.6559577405276" cy="10.447138615916373" fill="#444"></circle><circle id="circle" r="3.3649651683299346" cx="45.36854083315535" cy="6.2147214775488635" fill="#444"></circle><circle id="circle" r="2.526162845581854" cx="19.658909595948366" cy="7.990724333655425" fill="#444"></circle><circle id="circle" r="3.775840050412243" cx="57.47900444507954" cy="13.43361808239415" fill="#444"></circle><circle id="circle" r="2.329502567812529" cx="12.125941930841215" cy="2.77431577358796" fill="#444"></circle><circle id="circle" r="2.0043814738117773" cx="1.8511924739213528" cy="10.488495502861099" fill="#444"></circle><circle id="circle" r="3.053951661464998" cx="34.941608780317914" cy="14.309926236371199" fill="#444"></circle><circle id="circle" r="3.1599285974641504" cx="38.00949070641019" cy="7.780901127130998" fill="#444"></circle><circle id="circle" r="2.047858590283027" cx="3.690751757019776" cy="15.193933984997956" fill="#444"></circle><circle id="circle" r="5.885975341181112" cx="124.15479007278" cy="10.444952922684807" fill="#444"></circle><circle id="circle" r="2.830721837301461" cx="28.335024219933633" cy="8.228315410150493" fill="#444"></circle><circle id="circle" r="14.9682035374308" cx="409.6526590244546" cy="10.457580184608783" fill="#444"></circle><circle id="circle" r="3.9647392505821193" cx="64.07678809806994" cy="7.700645259738886" fill="#444"></circle></g><g id="labels" class="label"><text x="146.35823442343732" y="10.443915790990795" text-anchor="middle" fill="#000"></text><text x="23.718952737682244" y="12.846043349090378" text-anchor="middle" fill="#000"></text><text x="16.81820769766755" y="13.250190234155047" text-anchor="middle" fill="#000"></text><text x="10.296076055716028" y="12.78805866702969" text-anchor="middle" fill="#000"></text><text x="13.075731367390947" y="17.69674644037545" text-anchor="middle" fill="#000"></text><text x="13.737798067791404" y="8.27387437212744" text-anchor="middle" fill="#000"></text><text x="47.78673952840436" y="13.649440854373156" text-anchor="middle" fill="#000"></text><text x="2.781256958885795" y="5.550848464034788" text-anchor="middle" fill="#000"></text><text x="462.6559577405276" y="10.447138615916373" text-anchor="middle" fill="#000"></text><text x="45.36854083315535" y="6.2147214775488635" text-anchor="middle" fill="#000"></text><text x="19.658909595948366" y="7.990724333655425" text-anchor="middle" fill="#000"></text><text x="57.47900444507954" y="13.43361808239415" text-anchor="middle" fill="#000"></text><text x="12.125941930841215" y="2.77431577358796" text-anchor="middle" fill="#000"></text><text x="1.8511924739213528" y="10.488495502861099" text-anchor="middle" fill="#000"></text><text x="34.941608780317914" y="14.309926236371199" text-anchor="middle" fill="#000"></text><text x="38.00949070641019" y="7.780901127130998" text-anchor="middle" fill="#000"></text><text x="3.690751757019776" y="15.193933984997956" text-anchor="middle" fill="#000"></text><text x="124.15479007278" y="10.444952922684807" text-anchor="middle" fill="#000"></text><text x="28.335024219933633" y="8.228315410150493" text-anchor="middle" fill="#000"></text><text x="409.6526590244546" y="10.457580184608783" text-anchor="middle" fill="#000"></text><text x="64.07678809806994" y="7.700645259738886" text-anchor="middle" fill="#000"></text></g></g><g id="swarm-War" transform="translate(25,865.2105263157894)"><text x="-25" y="23" style="font-size: 10px; font-family: Arial, Helvetica;">War</text><g id="circles" class="bees"><circle id="circle" r="3.269908349050139" cx="41.58366422492082" cy="12.699443160720511" fill="#444"></circle><circle id="circle" r="7.291516134427613" cx="168.01842838642892" cy="2.2145193492976665" fill="#444"></circle><circle id="circle" r="3.4533818360886883" cx="47.99194105953507" cy="8.388619655309032" fill="#444"></circle><circle id="circle" r="2.971317986060224" cx="32.53316973571916" cy="10.448847496274647" fill="#444"></circle><circle id="circle" r="2.1899589323248514" cx="7.971317742211621" cy="10.44439697780037" fill="#444"></circle><circle id="circle" r="2.5639949614411646" cx="19.6339721840005" cy="16.60849025245747" fill="#444"></circle><circle id="circle" r="7.55187162336706" cx="177.73887695010902" cy="14.728469775021908" fill="#444"></circle><circle id="circle" r="2.590415909887006" cx="20.560870411585693" cy="10.526836817766211" fill="#444"></circle><circle id="circle" r="7.117678524664482" cx="162.16801996909004" cy="16.473725288268277" fill="#444"></circle><circle id="circle" r="5.885719070803035" cx="124.14673426915613" cy="10.44767677064027" fill="#444"></circle><circle id="circle" r="2.616701032255972" cx="21.476507672475318" cy="4.387626026474933" fill="#444"></circle><circle id="circle" r="6.718923482274087" cx="149.98130680445723" cy="8.011528093970897" fill="#444"></circle><circle id="circle" r="2.3933592598622724" cx="14.365162820887894" cy="10.435382818683788" fill="#444"></circle><circle id="circle" r="8.6664993366401" cx="211.55995740829508" cy="10.44175599764288" fill="#444"></circle><circle id="circle" r="14.9682035374308" cx="409.6526590244546" cy="10.45358948709841" fill="#444"></circle></g><g id="labels" class="label"><text x="41.58366422492082" y="12.699443160720511" text-anchor="middle" fill="#000"></text><text x="168.01842838642892" y="2.2145193492976665" text-anchor="middle" fill="#000"></text><text x="47.99194105953507" y="8.388619655309032" text-anchor="middle" fill="#000"></text><text x="32.53316973571916" y="10.448847496274647" text-anchor="middle" fill="#000"></text><text x="7.971317742211621" y="10.44439697780037" text-anchor="middle" fill="#000"></text><text x="19.6339721840005" y="16.60849025245747" text-anchor="middle" fill="#000"></text><text x="177.73887695010902" y="14.728469775021908" text-anchor="middle" fill="#000"></text><text x="20.560870411585693" y="10.526836817766211" text-anchor="middle" fill="#000"></text><text x="162.16801996909004" y="16.473725288268277" text-anchor="middle" fill="#000"></text><text x="124.14673426915613" y="10.44767677064027" text-anchor="middle" fill="#000"></text><text x="21.476507672475318" y="4.387626026474933" text-anchor="middle" fill="#000"></text><text x="149.98130680445723" y="8.011528093970897" text-anchor="middle" fill="#000"></text><text x="14.365162820887894" y="10.435382818683788" text-anchor="middle" fill="#000"></text><text x="211.55995740829508" y="10.44175599764288" text-anchor="middle" fill="#000"></text><text x="409.6526590244546" y="10.45358948709841" text-anchor="middle" fill="#000"></text></g></g><g id="swarm-Western" transform="translate(25,916.1052631578947)"><text x="-25" y="23" style="font-size: 10px; font-family: Arial, Helvetica;">Western</text><g id="circles" class="bees"><circle id="circle" r="2.2792373127005043" cx="10.777764220976712" cy="10.444144799602325" fill="#444"></circle><circle id="circle" r="2.8040672191371057" cx="27.27567823635333" cy="10.44622908046071" fill="#444"></circle></g><g id="labels" class="label"><text x="10.777764220976712" y="10.444144799602325" text-anchor="middle" fill="#000"></text><text x="27.27567823635333" y="10.44622908046071" text-anchor="middle" fill="#000"></text></g></g><g id="&quot;x-axis" class="x axis" transform="translate(25,967)" fill="none" font-size="10" font-family="sans-serif" text-anchor="middle" style="font-size: 10px; font-family: Arial, Helvetica;"><path class="domain" stroke="#000" d="M2.5,6V0.5H725.5V6" style="shape-rendering: crispedges; fill: none; stroke: rgb(204, 204, 204);"></path><g class="tick" opacity="1" transform="translate(89.74339842001375,0)"><line stroke="#000" y2="6" style="shape-rendering: crispedges; fill: none; stroke: rgb(204, 204, 204);"></line><text fill="#000" y="9" dy="0.71em">50,000,000</text></g><g class="tick" opacity="1" transform="translate(177.02187755192978,0)"><line stroke="#000" y2="6" style="shape-rendering: crispedges; fill: none; stroke: rgb(204, 204, 204);"></line><text fill="#000" y="9" dy="0.71em">100,000,000</text></g><g class="tick" opacity="1" transform="translate(264.30035668384585,0)"><line stroke="#000" y2="6" style="shape-rendering: crispedges; fill: none; stroke: rgb(204, 204, 204);"></line><text fill="#000" y="9" dy="0.71em">150,000,000</text></g><g class="tick" opacity="1" transform="translate(351.57883581576186,0)"><line stroke="#000" y2="6" style="shape-rendering: crispedges; fill: none; stroke: rgb(204, 204, 204);"></line><text fill="#000" y="9" dy="0.71em">200,000,000</text></g><g class="tick" opacity="1" transform="translate(438.8573149476779,0)"><line stroke="#000" y2="6" style="shape-rendering: crispedges; fill: none; stroke: rgb(204, 204, 204);"></line><text fill="#000" y="9" dy="0.71em">250,000,000</text></g><g class="tick" opacity="1" transform="translate(526.1357940795939,0)"><line stroke="#000" y2="6" style="shape-rendering: crispedges; fill: none; stroke: rgb(204, 204, 204);"></line><text fill="#000" y="9" dy="0.71em">300,000,000</text></g><g class="tick" opacity="1" transform="translate(613.4142732115099,0)"><line stroke="#000" y2="6" style="shape-rendering: crispedges; fill: none; stroke: rgb(204, 204, 204);"></line><text fill="#000" y="9" dy="0.71em">350,000,000</text></g><g class="tick" opacity="1" transform="translate(700.6927523434259,0)"><line stroke="#000" y2="6" style="shape-rendering: crispedges; fill: none; stroke: rgb(204, 204, 204);"></line><text fill="#000" y="9" dy="0.71em">400,000,000</text></g></g></svg>